<mxfile host="app.diagrams.net" modified="2023-04-12T09:00:16.564Z" agent="5.0 (Windows NT 10.0; Win64; x64) AppleWebKit/537.36 (KHTML, like Gecko) Chrome/112.0.0.0 Safari/537.36 Edg/112.0.1722.34" etag="NLxOHVPGXObdUxacjQ0O" version="21.0.2" type="github">
  <diagram name="第 1 页" id="oPnY39aIk3bLeTmH5xVW">
    <mxGraphModel dx="2017" dy="1124" grid="1" gridSize="10" guides="1" tooltips="1" connect="1" arrows="1" fold="1" page="1" pageScale="1" pageWidth="827" pageHeight="1169" math="0" shadow="0">
      <root>
        <mxCell id="0" />
        <mxCell id="1" parent="0" />
        <mxCell id="dJBwUfo02OKsr1JR9C36-8" style="edgeStyle=orthogonalEdgeStyle;rounded=0;orthogonalLoop=1;jettySize=auto;html=1;exitX=0.5;exitY=1;exitDx=0;exitDy=0;exitPerimeter=0;entryX=0.5;entryY=0;entryDx=0;entryDy=0;fontSize=16;" edge="1" parent="1" source="dJBwUfo02OKsr1JR9C36-1" target="dJBwUfo02OKsr1JR9C36-3">
          <mxGeometry relative="1" as="geometry" />
        </mxCell>
        <mxCell id="dJBwUfo02OKsr1JR9C36-1" value="开始" style="strokeWidth=2;html=1;shape=mxgraph.flowchart.terminator;whiteSpace=wrap;fontSize=16;" vertex="1" parent="1">
          <mxGeometry x="370" y="60" width="100" height="60" as="geometry" />
        </mxCell>
        <mxCell id="dJBwUfo02OKsr1JR9C36-2" value="结束" style="strokeWidth=2;html=1;shape=mxgraph.flowchart.terminator;whiteSpace=wrap;fontSize=16;" vertex="1" parent="1">
          <mxGeometry x="370" y="1050" width="100" height="60" as="geometry" />
        </mxCell>
        <mxCell id="dJBwUfo02OKsr1JR9C36-9" style="edgeStyle=orthogonalEdgeStyle;rounded=0;orthogonalLoop=1;jettySize=auto;html=1;exitX=0.5;exitY=1;exitDx=0;exitDy=0;entryX=0.5;entryY=0;entryDx=0;entryDy=0;fontSize=16;" edge="1" parent="1" source="dJBwUfo02OKsr1JR9C36-3" target="dJBwUfo02OKsr1JR9C36-4">
          <mxGeometry relative="1" as="geometry" />
        </mxCell>
        <mxCell id="dJBwUfo02OKsr1JR9C36-3" value="双目摄像头采集图像" style="rounded=1;whiteSpace=wrap;html=1;fontSize=16;" vertex="1" parent="1">
          <mxGeometry x="360" y="160" width="120" height="60" as="geometry" />
        </mxCell>
        <mxCell id="dJBwUfo02OKsr1JR9C36-10" style="edgeStyle=orthogonalEdgeStyle;rounded=0;orthogonalLoop=1;jettySize=auto;html=1;exitX=0.5;exitY=1;exitDx=0;exitDy=0;entryX=0.5;entryY=0;entryDx=0;entryDy=0;entryPerimeter=0;fontSize=16;" edge="1" parent="1" source="dJBwUfo02OKsr1JR9C36-4" target="dJBwUfo02OKsr1JR9C36-5">
          <mxGeometry relative="1" as="geometry" />
        </mxCell>
        <mxCell id="dJBwUfo02OKsr1JR9C36-4" value="求解帧的二阶差分均值" style="rounded=1;whiteSpace=wrap;html=1;fontSize=16;" vertex="1" parent="1">
          <mxGeometry x="360" y="260" width="120" height="60" as="geometry" />
        </mxCell>
        <mxCell id="dJBwUfo02OKsr1JR9C36-11" style="edgeStyle=orthogonalEdgeStyle;rounded=0;orthogonalLoop=1;jettySize=auto;html=1;exitX=0;exitY=0.5;exitDx=0;exitDy=0;exitPerimeter=0;entryX=0.5;entryY=0;entryDx=0;entryDy=0;fontSize=16;" edge="1" parent="1" source="dJBwUfo02OKsr1JR9C36-5" target="dJBwUfo02OKsr1JR9C36-6">
          <mxGeometry relative="1" as="geometry" />
        </mxCell>
        <mxCell id="dJBwUfo02OKsr1JR9C36-13" style="edgeStyle=orthogonalEdgeStyle;rounded=0;orthogonalLoop=1;jettySize=auto;html=1;exitX=1;exitY=0.5;exitDx=0;exitDy=0;exitPerimeter=0;entryX=0.5;entryY=0;entryDx=0;entryDy=0;fontSize=16;" edge="1" parent="1" source="dJBwUfo02OKsr1JR9C36-5" target="dJBwUfo02OKsr1JR9C36-7">
          <mxGeometry relative="1" as="geometry" />
        </mxCell>
        <mxCell id="dJBwUfo02OKsr1JR9C36-5" value="判断是否小于阈值" style="strokeWidth=2;html=1;shape=mxgraph.flowchart.decision;whiteSpace=wrap;fontSize=16;" vertex="1" parent="1">
          <mxGeometry x="330" y="360" width="180" height="90" as="geometry" />
        </mxCell>
        <mxCell id="dJBwUfo02OKsr1JR9C36-20" style="edgeStyle=orthogonalEdgeStyle;rounded=0;orthogonalLoop=1;jettySize=auto;html=1;entryX=0.5;entryY=0;entryDx=0;entryDy=0;fontSize=16;" edge="1" parent="1" source="dJBwUfo02OKsr1JR9C36-6" target="dJBwUfo02OKsr1JR9C36-16">
          <mxGeometry relative="1" as="geometry">
            <Array as="points">
              <mxPoint x="220" y="560" />
              <mxPoint x="420" y="560" />
            </Array>
          </mxGeometry>
        </mxCell>
        <mxCell id="dJBwUfo02OKsr1JR9C36-6" value="保留为关键帧" style="rounded=1;whiteSpace=wrap;html=1;fontSize=16;" vertex="1" parent="1">
          <mxGeometry x="160" y="460" width="120" height="60" as="geometry" />
        </mxCell>
        <mxCell id="dJBwUfo02OKsr1JR9C36-14" style="edgeStyle=orthogonalEdgeStyle;rounded=0;orthogonalLoop=1;jettySize=auto;html=1;entryX=1;entryY=0.5;entryDx=0;entryDy=0;exitX=0.5;exitY=1;exitDx=0;exitDy=0;fontSize=16;" edge="1" parent="1" source="dJBwUfo02OKsr1JR9C36-7" target="dJBwUfo02OKsr1JR9C36-4">
          <mxGeometry relative="1" as="geometry">
            <Array as="points">
              <mxPoint x="620" y="560" />
              <mxPoint x="770" y="560" />
              <mxPoint x="770" y="290" />
            </Array>
          </mxGeometry>
        </mxCell>
        <mxCell id="dJBwUfo02OKsr1JR9C36-7" value="丢弃该帧" style="rounded=1;whiteSpace=wrap;html=1;fontSize=16;" vertex="1" parent="1">
          <mxGeometry x="560" y="460" width="120" height="60" as="geometry" />
        </mxCell>
        <mxCell id="dJBwUfo02OKsr1JR9C36-21" style="edgeStyle=orthogonalEdgeStyle;rounded=0;orthogonalLoop=1;jettySize=auto;html=1;entryX=0.5;entryY=0;entryDx=0;entryDy=0;entryPerimeter=0;fontSize=16;" edge="1" parent="1" source="dJBwUfo02OKsr1JR9C36-16" target="dJBwUfo02OKsr1JR9C36-17">
          <mxGeometry relative="1" as="geometry" />
        </mxCell>
        <mxCell id="dJBwUfo02OKsr1JR9C36-16" value="计算前后帧像素点的均值差" style="rounded=1;whiteSpace=wrap;html=1;fontSize=16;" vertex="1" parent="1">
          <mxGeometry x="360" y="600" width="120" height="60" as="geometry" />
        </mxCell>
        <mxCell id="dJBwUfo02OKsr1JR9C36-22" style="edgeStyle=orthogonalEdgeStyle;rounded=0;orthogonalLoop=1;jettySize=auto;html=1;entryX=0.5;entryY=0;entryDx=0;entryDy=0;fontSize=16;" edge="1" parent="1" source="dJBwUfo02OKsr1JR9C36-17" target="dJBwUfo02OKsr1JR9C36-18">
          <mxGeometry relative="1" as="geometry" />
        </mxCell>
        <mxCell id="dJBwUfo02OKsr1JR9C36-23" style="edgeStyle=orthogonalEdgeStyle;rounded=0;orthogonalLoop=1;jettySize=auto;html=1;entryX=0.5;entryY=0;entryDx=0;entryDy=0;fontSize=16;" edge="1" parent="1" source="dJBwUfo02OKsr1JR9C36-17" target="dJBwUfo02OKsr1JR9C36-19">
          <mxGeometry relative="1" as="geometry" />
        </mxCell>
        <mxCell id="dJBwUfo02OKsr1JR9C36-17" value="判断是否小于阈值" style="strokeWidth=2;html=1;shape=mxgraph.flowchart.decision;whiteSpace=wrap;fontSize=16;" vertex="1" parent="1">
          <mxGeometry x="330" y="700" width="180" height="90" as="geometry" />
        </mxCell>
        <mxCell id="dJBwUfo02OKsr1JR9C36-27" style="edgeStyle=orthogonalEdgeStyle;rounded=0;orthogonalLoop=1;jettySize=auto;html=1;exitX=0.5;exitY=1;exitDx=0;exitDy=0;entryX=0.5;entryY=0;entryDx=0;entryDy=0;fontSize=16;" edge="1" parent="1" source="dJBwUfo02OKsr1JR9C36-18" target="dJBwUfo02OKsr1JR9C36-26">
          <mxGeometry relative="1" as="geometry" />
        </mxCell>
        <mxCell id="dJBwUfo02OKsr1JR9C36-18" value="保留该帧" style="rounded=1;whiteSpace=wrap;html=1;fontSize=16;" vertex="1" parent="1">
          <mxGeometry x="160" y="800" width="120" height="60" as="geometry" />
        </mxCell>
        <mxCell id="dJBwUfo02OKsr1JR9C36-24" style="edgeStyle=orthogonalEdgeStyle;rounded=0;orthogonalLoop=1;jettySize=auto;html=1;entryX=1;entryY=0.5;entryDx=0;entryDy=0;fontSize=16;" edge="1" parent="1" source="dJBwUfo02OKsr1JR9C36-19" target="dJBwUfo02OKsr1JR9C36-4">
          <mxGeometry relative="1" as="geometry">
            <mxPoint x="770" y="560" as="targetPoint" />
            <Array as="points">
              <mxPoint x="620" y="900" />
              <mxPoint x="770" y="900" />
              <mxPoint x="770" y="290" />
            </Array>
          </mxGeometry>
        </mxCell>
        <mxCell id="dJBwUfo02OKsr1JR9C36-19" value="丢弃该帧" style="rounded=1;whiteSpace=wrap;html=1;fontSize=16;" vertex="1" parent="1">
          <mxGeometry x="560" y="800" width="120" height="60" as="geometry" />
        </mxCell>
        <mxCell id="dJBwUfo02OKsr1JR9C36-28" style="edgeStyle=orthogonalEdgeStyle;rounded=0;orthogonalLoop=1;jettySize=auto;html=1;exitX=0.5;exitY=1;exitDx=0;exitDy=0;entryX=0.5;entryY=0;entryDx=0;entryDy=0;entryPerimeter=0;fontSize=16;" edge="1" parent="1" source="dJBwUfo02OKsr1JR9C36-26" target="dJBwUfo02OKsr1JR9C36-2">
          <mxGeometry relative="1" as="geometry" />
        </mxCell>
        <mxCell id="dJBwUfo02OKsr1JR9C36-26" value="双边滤波" style="rounded=1;whiteSpace=wrap;html=1;fontSize=16;" vertex="1" parent="1">
          <mxGeometry x="360" y="930" width="120" height="60" as="geometry" />
        </mxCell>
        <mxCell id="dJBwUfo02OKsr1JR9C36-29" value="Yes" style="text;html=1;align=center;verticalAlign=middle;resizable=0;points=[];autosize=1;strokeColor=none;fillColor=none;fontSize=16;" vertex="1" parent="1">
          <mxGeometry x="245" y="370" width="50" height="30" as="geometry" />
        </mxCell>
        <mxCell id="dJBwUfo02OKsr1JR9C36-30" value="No" style="text;html=1;align=center;verticalAlign=middle;resizable=0;points=[];autosize=1;strokeColor=none;fillColor=none;fontSize=16;" vertex="1" parent="1">
          <mxGeometry x="555" y="370" width="40" height="30" as="geometry" />
        </mxCell>
        <mxCell id="dJBwUfo02OKsr1JR9C36-31" value="Yes" style="text;html=1;align=center;verticalAlign=middle;resizable=0;points=[];autosize=1;strokeColor=none;fillColor=none;fontSize=16;" vertex="1" parent="1">
          <mxGeometry x="255" y="710" width="50" height="30" as="geometry" />
        </mxCell>
        <mxCell id="dJBwUfo02OKsr1JR9C36-32" value="No" style="text;html=1;align=center;verticalAlign=middle;resizable=0;points=[];autosize=1;strokeColor=none;fillColor=none;fontSize=16;" vertex="1" parent="1">
          <mxGeometry x="555" y="710" width="40" height="30" as="geometry" />
        </mxCell>
      </root>
    </mxGraphModel>
  </diagram>
</mxfile>
